<svg width="16" height="11" viewBox="0 0 16 11" fill="none" xmlns="http://www.w3.org/2000/svg">
<path d="M6.5 2.375C6.5 3.20343 5.82843 3.875 5 3.875C4.17157 3.875 3.5 3.20343 3.5 2.375M6.5 2.375C6.5 1.54657 5.82843 0.875 5 0.875C4.17157 0.875 3.5 1.54657 3.5 2.375M6.5 2.375H15.125M3.5 2.375H0.875M9.5 8.375C9.5 7.54657 10.1716 6.875 11 6.875C11.8284 6.875 12.5 7.54657 12.5 8.375M9.5 8.375C9.5 9.20343 10.1716 9.875 11 9.875C11.8284 9.875 12.5 9.20343 12.5 8.375M9.5 8.375L0.875 8.375M12.5 8.375H15.125" stroke="black" stroke-linecap="round"/>
</svg>
